<svg width="40" height="40" viewBox="0 0 40 40" fill="none" xmlns="http://www.w3.org/2000/svg">
<path fill-rule="evenodd" clip-rule="evenodd" d="M14.0061 31.417C13.8373 31.0974 13.6286 30.8006 13.3849 30.5336C13.0258 30.1949 12.6326 29.8942 12.2116 29.6363C12.6781 29.1528 13.0354 28.5748 13.2592 27.9414C13.4831 27.3079 13.5683 26.6338 13.5092 25.9645C13.5092 25.393 13.3962 24.8271 13.1766 24.2994C12.9571 23.7717 12.6353 23.2927 12.2299 22.8898C11.8245 22.487 11.3434 22.1683 10.8144 21.9521C10.2853 21.7359 9.71869 21.6265 9.14717 21.6301C7.93117 21.5957 6.74957 22.0362 5.85284 22.8582C4.9561 23.6802 4.41471 24.8191 4.34343 26.0335C4.31359 26.8066 4.51076 27.5715 4.91061 28.2338C5.31045 28.8961 5.89547 29.4269 6.59346 29.7606C6.02254 30.0627 5.48174 30.4186 4.97841 30.8235C4.47986 31.2405 4.05113 31.7344 3.70845 32.2867C3.39245 32.7631 3.17579 33.2984 3.07143 33.8605C2.96707 34.4227 2.97716 35.0001 3.10108 35.5582C3.11756 35.679 3.18135 35.7883 3.27843 35.8621C3.3755 35.9359 3.49791 35.9681 3.61873 35.9516C3.73954 35.9351 3.84886 35.8713 3.92264 35.7743C3.99642 35.6772 4.02861 35.5548 4.01214 35.434C4.01299 34.7984 4.20541 34.1778 4.56429 33.6533C4.90276 33.1336 5.29111 32.6481 5.72381 32.2039C6.3864 31.4584 7.1042 30.713 7.67016 30.1471C8.08509 30.2541 8.51161 30.3097 8.94011 30.3127C8.99271 30.3165 9.04553 30.3098 9.09553 30.2931C9.14554 30.2764 9.19176 30.2499 9.23152 30.2153C9.27128 30.1807 9.30381 30.1385 9.32724 30.0913C9.35066 30.044 9.36453 29.9926 9.36803 29.94C9.37178 29.8874 9.36511 29.8346 9.34839 29.7846C9.33167 29.7346 9.30523 29.6884 9.2706 29.6486C9.23597 29.6088 9.19382 29.5763 9.14658 29.5529C9.09934 29.5295 9.04794 29.5156 8.99532 29.5121C6.56585 29.2636 5.51676 27.6762 5.64099 26.1026C5.73522 25.2395 6.1604 24.4466 6.82714 23.8906C7.49388 23.3345 8.35025 23.0586 9.21619 23.1209C10.006 23.1061 10.7697 23.4038 11.341 23.9493C11.9124 24.4948 12.2451 25.2439 12.2668 26.0335C12.4306 26.8385 12.2702 27.6756 11.8205 28.363C11.3708 29.0505 10.6681 29.5328 9.86497 29.7054C9.80421 29.7103 9.74514 29.7277 9.69146 29.7566C9.63778 29.7855 9.59066 29.8252 9.55306 29.8731C9.51546 29.9211 9.4882 29.9763 9.47298 30.0354C9.45777 30.0944 9.45493 30.1559 9.46466 30.2161C9.47855 30.3346 9.53839 30.4429 9.63132 30.5178C9.72425 30.5927 9.84284 30.6281 9.96159 30.6164C10.4409 30.5612 10.9075 30.4259 11.342 30.2161C11.6664 30.6017 11.9661 31.0074 12.2392 31.4308L12.6948 32.1762C12.8328 32.4385 12.9846 32.687 13.1227 32.9631C13.4744 33.6035 13.77 34.2732 14.0061 34.9646C14.0159 35.0246 14.0378 35.0818 14.0707 35.1329C14.1036 35.1839 14.1466 35.2277 14.1971 35.2614C14.2476 35.295 14.3045 35.3179 14.3643 35.3286C14.4241 35.3393 14.4854 35.3376 14.5445 35.3235C14.6619 35.297 14.7647 35.2263 14.8315 35.1261C14.8983 35.0259 14.924 34.9038 14.9034 34.7852C14.8423 33.9722 14.68 33.1699 14.4202 32.3971C14.3156 32.0573 14.1768 31.7289 14.0061 31.417V31.417Z" fill="#229B8E"/>
<path fill-rule="evenodd" clip-rule="evenodd" d="M35.6644 32.3968C35.5562 32.0517 35.4128 31.7187 35.2365 31.403C35.0581 31.0859 34.8451 30.7897 34.6015 30.5195C34.2566 30.164 33.8722 29.8491 33.4558 29.5809C33.9131 29.0954 34.2616 28.518 34.4782 27.8873C34.6948 27.2565 34.7745 26.5868 34.712 25.9228C34.7101 25.3518 34.5959 24.7867 34.3757 24.2599C34.1555 23.733 33.8337 23.2547 33.4286 22.8522C33.0236 22.4497 32.5432 22.131 32.015 21.9141C31.4867 21.6973 30.921 21.5866 30.3499 21.5884C29.122 21.5505 27.9279 21.9942 27.0227 22.8247C26.1174 23.6551 25.5727 24.8066 25.5048 26.0333C25.4851 26.8113 25.6927 27.5783 26.1021 28.2402C26.5115 28.9022 27.1051 29.4304 27.81 29.7603C27.2391 30.0625 26.6983 30.4184 26.195 30.8232C25.6964 31.2402 25.2677 31.7341 24.925 32.2864C24.6031 32.7601 24.3829 33.2954 24.2783 33.8585C24.1738 34.4216 24.1872 35.0003 24.3177 35.5579C24.3196 35.6218 24.335 35.6846 24.3628 35.7422C24.3906 35.7998 24.4302 35.8509 24.479 35.8921C24.5278 35.9334 24.5848 35.9639 24.6462 35.9817C24.7077 35.9995 24.7721 36.0041 24.8355 35.9954C24.8988 35.9866 24.9596 35.9646 25.0138 35.9308C25.0681 35.897 25.1147 35.8521 25.1504 35.7991C25.1862 35.7462 25.2105 35.6862 25.2216 35.6233C25.2327 35.5603 25.2304 35.4957 25.2149 35.4337C25.2207 34.7968 25.4179 34.1763 25.7809 33.653C26.1193 33.1333 26.5077 32.6479 26.9404 32.2036C27.603 31.4582 28.3208 30.7128 28.8729 30.1468C29.2926 30.2537 29.7236 30.3093 30.1567 30.3125C30.2093 30.3125 30.2613 30.3021 30.3099 30.282C30.3584 30.2619 30.4026 30.2324 30.4398 30.1952C30.4769 30.158 30.5064 30.1139 30.5265 30.0653C30.5466 30.0168 30.557 29.9647 30.557 29.9121C30.557 29.8596 30.5466 29.8075 30.5265 29.759C30.5064 29.7104 30.4769 29.6663 30.4398 29.6291C30.4026 29.5919 30.3584 29.5624 30.3099 29.5423C30.2613 29.5222 30.2093 29.5118 30.1567 29.5118C27.7272 29.2634 26.6781 27.6759 26.8024 26.1023C26.8966 25.2392 27.3218 24.4463 27.9885 23.8903C28.6552 23.3342 29.5116 23.0584 30.3776 23.1207C31.1674 23.1058 31.9311 23.4035 32.5024 23.949C33.0738 24.4945 33.4065 25.2436 33.4282 26.0333C33.5908 26.8441 33.4248 27.6864 32.9667 28.375C32.5085 29.0635 31.7957 29.5419 30.9849 29.7051C30.8653 29.7223 30.7568 29.785 30.6823 29.8801C30.6077 29.9753 30.5727 30.0955 30.5846 30.2158C30.6018 30.3355 30.6645 30.4439 30.7596 30.5185C30.8548 30.5931 30.975 30.628 31.0953 30.6161C31.5747 30.561 32.0413 30.4256 32.4757 30.2158C32.7958 30.6015 33.0909 31.0073 33.3592 31.4306C33.5248 31.679 33.6767 31.9275 33.8147 32.176C33.9666 32.4382 34.1184 32.6867 34.2564 32.9628C34.594 33.6046 34.8758 34.2742 35.0985 34.9644C35.11 35.0234 35.1331 35.0796 35.1665 35.1296C35.1999 35.1797 35.2428 35.2226 35.2929 35.256C35.3429 35.2894 35.3991 35.3125 35.4581 35.324C35.5171 35.3356 35.5779 35.3353 35.6368 35.3233C35.6967 35.3135 35.754 35.2915 35.8051 35.2587C35.8561 35.2258 35.8999 35.1828 35.9335 35.1323C35.9672 35.0817 35.9901 35.0248 36.0008 34.9651C36.0115 34.9053 36.0098 34.844 35.9957 34.7849C35.984 33.9783 35.8727 33.1762 35.6644 32.3968V32.3968Z" fill="#229B8E"/>
<path fill-rule="evenodd" clip-rule="evenodd" d="M24.9526 17.2129C24.907 16.4025 24.7634 15.6007 24.5247 14.8249C24.4191 14.4832 24.2755 14.1545 24.0968 13.8448C23.9314 13.5231 23.7224 13.2258 23.4756 12.9614C23.1223 12.5943 22.7233 12.2742 22.2884 12.0089C22.7701 11.53 23.1428 10.9528 23.381 10.3168C23.6192 9.68071 23.7174 9.00073 23.6688 8.32326C23.669 7.74765 23.5541 7.17781 23.331 6.64721C23.1078 6.11661 22.7809 5.63595 22.3694 5.23346C21.9579 4.83096 21.4701 4.51475 20.9347 4.30339C20.3993 4.09203 19.8271 3.98978 19.2516 4.00266C18.0241 3.96129 16.8296 4.40417 15.9257 5.23571C15.0219 6.06726 14.4811 7.22082 14.4203 8.4475C14.3922 9.22025 14.5901 9.9844 14.9897 10.6464C15.3894 11.3084 15.9734 11.8394 16.6703 12.1745C16.0964 12.4717 15.5551 12.8279 15.0552 13.2374C14.5625 13.6285 14.134 14.0943 13.7853 14.6178C13.4689 15.0967 13.2521 15.6343 13.1477 16.1987C13.0434 16.7631 13.0536 17.3428 13.1779 17.9031C13.1983 18.0229 13.2644 18.1302 13.3622 18.2022C13.46 18.2743 13.582 18.3057 13.7025 18.2896C13.8214 18.2694 13.9274 18.2028 13.9973 18.1044C14.0671 18.0061 14.0952 17.8841 14.0752 17.7651C14.0851 17.1289 14.2819 16.5096 14.6411 15.9844C14.9896 15.4936 15.3774 15.032 15.8006 14.604C16.4632 13.8586 17.181 13.127 17.747 12.561C18.1644 12.6546 18.5895 12.71 19.0169 12.7267C19.1231 12.7267 19.2249 12.6845 19.3 12.6094C19.3751 12.5344 19.4172 12.4325 19.4172 12.3264C19.4172 12.2202 19.3751 12.1184 19.3 12.0433C19.2249 11.9682 19.1231 11.9261 19.0169 11.9261C16.6427 11.6914 15.5936 10.0902 15.7178 8.51651C15.812 7.65346 16.2372 6.86056 16.904 6.30452C17.5707 5.74847 18.4271 5.47259 19.293 5.53488C20.072 5.53098 20.8216 5.83212 21.3815 6.37387C21.9413 6.91562 22.2668 7.65496 22.2884 8.43369C22.4514 9.24625 22.2857 10.0903 21.8278 10.781C21.3699 11.4717 20.657 11.9529 19.8452 12.1193C19.7862 12.1242 19.7289 12.1413 19.6769 12.1695C19.6249 12.1977 19.5793 12.2363 19.543 12.283C19.5066 12.3297 19.4804 12.3835 19.4659 12.4408C19.4514 12.4982 19.4489 12.5579 19.4587 12.6163C19.4726 12.7348 19.5324 12.8431 19.6253 12.918C19.7182 12.9928 19.8368 13.0282 19.9556 13.0166C20.4373 12.974 20.9062 12.838 21.336 12.6163C21.6606 13.0032 21.9559 13.4139 22.2194 13.8448C22.3851 14.0933 22.5369 14.3417 22.675 14.5902C22.8268 14.8387 22.9786 15.1009 23.1167 15.3632C23.4589 16.0094 23.7452 16.6836 23.9725 17.3786C23.999 17.4933 24.0676 17.5939 24.1648 17.6603C24.262 17.7268 24.3806 17.7544 24.4971 17.7375C24.5625 17.736 24.6268 17.7209 24.686 17.6931C24.7453 17.6653 24.798 17.6254 24.8409 17.576C24.8838 17.5266 24.9159 17.4688 24.9351 17.4063C24.9543 17.3438 24.9603 17.2779 24.9526 17.2129V17.2129Z" fill="#229B8E"/>
<path fill-rule="evenodd" clip-rule="evenodd" d="M23.1995 27.9797C22.2792 28.3761 21.3221 28.6813 20.3422 28.8908C19.7294 29.0277 19.1059 29.1109 18.4786 29.1393C17.4329 29.2425 16.3802 29.031 15.4556 28.5319C15.3677 28.4697 15.2587 28.4449 15.1526 28.463C15.0465 28.4811 14.9519 28.5407 14.8896 28.6285C14.8274 28.7164 14.8026 28.8254 14.8207 28.9315C14.8389 29.0377 14.8984 29.1322 14.9863 29.1945C15.9471 30.0766 17.1892 30.59 18.4924 30.6439C19.2571 30.6647 20.0192 30.5478 20.7425 30.2988C21.7832 29.9237 22.7677 29.4082 23.6689 28.7666C23.7295 28.7428 23.7844 28.7063 23.8297 28.6596C23.8751 28.6129 23.9099 28.5569 23.9318 28.4956C23.9537 28.4343 23.9622 28.3689 23.9568 28.304C23.9513 28.2391 23.9319 28.1762 23.9001 28.1194C23.8682 28.0626 23.8245 28.0133 23.7719 27.9748C23.7194 27.9363 23.6592 27.9096 23.5954 27.8963C23.5316 27.8831 23.4658 27.8837 23.4022 27.8981C23.3387 27.9125 23.279 27.9403 23.2272 27.9797H23.1995Z" fill="#229B8E"/>
<path fill-rule="evenodd" clip-rule="evenodd" d="M7.36642 18.9799C7.4842 18.9503 7.58594 18.8763 7.65029 18.7734C7.71465 18.6704 7.73659 18.5465 7.71152 18.4277C7.62758 17.5975 7.70254 16.7589 7.93238 15.9568C8.01938 15.6243 8.12539 15.2971 8.24987 14.9767C8.3741 14.6593 8.51214 14.3418 8.66399 14.0381C8.99165 13.2948 9.50505 12.6483 10.1548 12.1608C10.25 12.1113 10.3216 12.0261 10.354 11.9239C10.3864 11.8216 10.3768 11.7107 10.3273 11.6155C10.2779 11.5203 10.1927 11.4487 10.0905 11.4163C9.9882 11.3839 9.87728 11.3935 9.7821 11.443C8.82796 11.8092 8.00238 12.4476 7.40784 13.2789C7.15758 13.6412 6.95789 14.0359 6.81427 14.4522C6.6661 14.8582 6.56422 15.2795 6.51059 15.7083C6.40729 16.6817 6.51559 17.6658 6.82807 18.5933C6.83634 18.6549 6.85708 18.714 6.88903 18.7672C6.92098 18.8204 6.96347 18.8665 7.01388 18.9027C7.06429 18.9389 7.12156 18.9644 7.18219 18.9777C7.24281 18.991 7.30551 18.9917 7.36642 18.9799V18.9799Z" fill="#229B8E"/>
<path fill-rule="evenodd" clip-rule="evenodd" d="M29.853 13.872C29.9993 14.212 30.1193 14.5628 30.2119 14.9211C30.5276 16.2034 30.386 17.5557 29.8116 18.7448C29.7827 18.7963 29.7644 18.853 29.7577 18.9117C29.7511 18.9703 29.7563 19.0297 29.7731 19.0864C29.7898 19.143 29.8177 19.1957 29.8551 19.2413C29.8926 19.287 29.9388 19.3247 29.9911 19.3522C30.0436 19.3814 30.1014 19.3999 30.1611 19.4067C30.2208 19.4135 30.2813 19.4084 30.339 19.3918C30.3967 19.3751 30.4506 19.3471 30.4975 19.3095C30.5444 19.2719 30.5834 19.2254 30.6122 19.1727C31.2551 18.2496 31.6627 17.1834 31.7994 16.0668C31.8552 15.5642 31.8272 15.0557 31.7165 14.5622C31.6038 14.0723 31.4077 13.6054 31.1368 13.1818C30.5023 12.2596 29.6608 11.4985 28.6797 10.9594C28.5928 10.8978 28.4855 10.872 28.3801 10.8874C28.2747 10.9028 28.1793 10.9583 28.1137 11.0422C28.0815 11.0846 28.058 11.133 28.0447 11.1846C28.0314 11.2362 28.0285 11.2899 28.0362 11.3426C28.0439 11.3953 28.0621 11.446 28.0896 11.4916C28.1171 11.5372 28.1535 11.5768 28.1966 11.6082C28.8922 12.2465 29.4551 13.0158 29.853 13.872Z" fill="#229B8E"/>
</svg>
